<svg viewBox="0 -31 512.00029 512" xmlns="http://www.w3.org/2000/svg"><path d="m15 30h92c8.269531 0 15 6.730469 15 15 0 1.292969-1.898438-16.261719 28.585938 258.113281-16.714844 6.574219-28.585938 22.863281-28.585938 41.886719 0 24.8125 20.1875 44.988281 45 44.988281h17.578125c-1.664063 4.695313-2.578125 9.753907-2.578125 15.011719 0 24.8125 20.1875 45 45 45s45-20.1875 45-45c0-5.257812-.914062-10.316406-2.578125-15.011719h95.160156c-1.667969 4.695313-2.582031 9.753907-2.582031 15.011719 0 24.8125 20.1875 45 45 45s45-20.1875 45-45-20.1875-45-45-45h-240c-8.269531 0-15-6.730469-15-15s6.730469-15 15-15h274.585938c22.089843 0 40.757812-15.8125 44.386718-37.601562l25.824219-154.933594c.722656-4.347656-.5-8.796875-3.351563-12.160156-2.851562-3.363282-7.035156-5.304688-11.445312-5.304688h-45v-75c0-8.285156-6.714844-15-15-15h-120c-8.285156 0-15 6.714844-15 15v15h-75c-8.285156 0-15 6.714844-15 15v45h-51.574219l-8.433593-75.914062c-.492188-24.390626-20.484376-44.085938-44.992188-44.085938h-92c-8.285156 0-15 6.714844-15 15s6.714844 15 15 15zm227 375c0 8.269531-6.730469 15-15 15s-15-6.730469-15-15 6.730469-15.011719 15-15.011719 15 6.742188 15 15.011719zm165 15c-8.269531 0-15-6.730469-15-15 0-8.296875 6.730469-15 15-15s15 6.730469 15 15-6.730469 15-15 15zm-75-360h90v60h-90zm-90 30h60v30h-60zm237.292969 60-22.910157 137.464844c-1.210937 7.265625-7.433593 12.535156-14.796874 12.535156h-261.160157l-16.667969-150zm0 0"/><path d="m227 270c8.285156 0 15-6.714844 15-15v-60c0-8.285156-6.714844-15-15-15s-15 6.714844-15 15v60c0 8.285156 6.714844 15 15 15zm0 0"/><path d="m317 270c8.285156 0 15-6.714844 15-15v-60c0-8.285156-6.714844-15-15-15s-15 6.714844-15 15v60c0 8.285156 6.714844 15 15 15zm0 0"/><path d="m407 270c8.285156 0 15-6.714844 15-15v-60c0-8.285156-6.714844-15-15-15s-15 6.714844-15 15v60c0 8.285156 6.714844 15 15 15zm0 0"/></svg>