<?xml version="1.0"?>
<svg xmlns="http://www.w3.org/2000/svg" xmlns:xlink="http://www.w3.org/1999/xlink" version="1.1" id="Capa_1" x="0px" y="0px" width="512px" height="512px" viewBox="0 0 512 512" style="enable-background:new 0 0 512 512;" xml:space="preserve" class=""><g><g>
	<path d="M256.001,512C114.841,512,0,397.159,0,256S114.841,0,256.001,0C397.162,0,512,114.841,512,256S397.162,512,256.001,512z    M471.898,291.043c-7.48-2.359-67.682-20.316-136.205-9.35c28.604,78.594,40.238,142.604,42.48,155.903   C427.23,404.43,462.152,351.885,471.898,291.043z M341.416,457.619c-3.254-19.187-15.949-86.045-46.648-165.82   c-0.479,0.164-0.961,0.32-1.439,0.486C169.993,335.264,125.72,420.793,121.785,428.837c37.075,28.912,83.668,46.16,134.218,46.16   C286.292,474.997,315.16,468.802,341.416,457.619z M93.549,402.539c4.954-8.48,64.965-107.842,177.738-144.297   c2.852-0.92,5.725-1.785,8.617-2.6c-5.489-12.422-11.469-24.857-17.727-37.108c-109.201,32.68-215.164,31.315-224.73,31.118   c-0.066,2.221-0.111,4.445-0.111,6.683C37.336,312.495,58.626,363.771,93.549,402.539z M41.956,211.548   c9.779,0.13,99.868,0.521,202.151-26.641c-36.23-64.406-75.306-118.555-81.071-126.46   C101.862,87.301,56.135,143.695,41.956,211.548z M204.759,43.75c6.044,8.092,45.759,62.174,81.591,128.007   c77.754-29.142,110.67-73.385,114.604-78.987c-38.613-34.259-89.391-55.1-144.95-55.1C238.357,37.67,221.202,39.786,204.759,43.75z    M425.262,118.056c-4.607,6.237-41.252,53.209-122.102,86.217c5.088,10.416,9.967,21.009,14.508,31.672   c1.607,3.78,3.178,7.542,4.709,11.285c72.76-9.149,145.053,5.514,152.264,7.039C474.156,202.657,455.715,155.264,425.262,118.056z" data-original="#000000" class="active-path" data-old_color="#95e1d3" fill="#95e1d3"/>
</g></g> </svg>
